<?xml version="1.0" encoding="UTF-8" standalone="no"?>
<!DOCTYPE svg PUBLIC "-//W3C//DTD SVG 1.1//EN"
 "http://www.w3.org/Graphics/SVG/1.1/DTD/svg11.dtd">
<!-- Generated by graphviz version 2.47.0 (20210316.0004)
 -->
<!-- Title: dependencies Pages: 1 -->
<svg width="504pt" height="211pt"
 viewBox="0.00 0.00 504.00 211.00" xmlns="http://www.w3.org/2000/svg" xmlns:xlink="http://www.w3.org/1999/xlink">
<g id="graph0" class="graph" transform="scale(1 1) rotate(0) translate(4 207)">
<title>dependencies</title>
<polygon fill="white" stroke="transparent" points="-4,4 -4,-207 500,-207 500,4 -4,4"/>
<text text-anchor="start" x="227.01" y="-42.4" font-family="Times-12" font-weight="bold" font-size="14.00">Legend</text>
<polygon fill="#ffffb3" stroke="transparent" points="14,-10 14,-30 34,-30 34,-10 14,-10"/>
<text text-anchor="start" x="37.63" y="-15.4" font-family="Times-12" font-size="14.00"> &#160;Declarations</text>
<polygon fill="#8dd3c7" stroke="transparent" points="127,-10 127,-30 147,-30 147,-10 127,-10"/>
<text text-anchor="start" x="150.73" y="-15.4" font-family="Times-12" font-size="14.00"> &#160;Module</text>
<polygon fill="#80b1d3" stroke="transparent" points="213,-10 213,-30 233,-30 233,-10 213,-10"/>
<text text-anchor="start" x="236.78" y="-15.4" font-family="Times-12" font-size="14.00"> &#160;Bootstrap</text>
<polygon fill="#fdb462" stroke="transparent" points="310,-10 310,-30 330,-30 330,-10 310,-10"/>
<text text-anchor="start" x="333.67" y="-15.4" font-family="Times-12" font-size="14.00"> &#160;Providers</text>
<polygon fill="#fb8072" stroke="transparent" points="406,-10 406,-30 426,-30 426,-10 406,-10"/>
<text text-anchor="start" x="429.73" y="-15.4" font-family="Times-12" font-size="14.00"> &#160;Exports</text>
<g id="clust1" class="cluster">
<title>cluster_ImagesModule</title>
<polygon fill="none" stroke="black" stroke-dasharray="1,5" points="12,-70 12,-195 484,-195 484,-70 12,-70"/>
</g>
<g id="clust6" class="cluster">
<title>cluster_ImagesModule_providers</title>
<polygon fill="none" stroke="black" points="20,-78 20,-130 476,-130 476,-78 20,-78"/>
</g>
<!-- ArticleService -->
<g id="node1" class="node">
<title>ArticleService</title>
<ellipse fill="#fdb462" stroke="black" cx="401" cy="-104" rx="66.61" ry="18"/>
<text text-anchor="middle" x="401" y="-99.8" font-family="Times,serif" font-size="14.00">ArticleService</text>
</g>
<!-- ImagesModule -->
<g id="node4" class="node">
<title>ImagesModule</title>
<polygon fill="#8dd3c7" stroke="black" points="297.97,-187 294.97,-191 273.97,-191 270.97,-187 198.03,-187 198.03,-151 297.97,-151 297.97,-187"/>
<text text-anchor="middle" x="248" y="-164.8" font-family="Times,serif" font-size="14.00">ImagesModule</text>
</g>
<!-- ArticleService&#45;&gt;ImagesModule -->
<g id="edge1" class="edge">
<title>ArticleService&#45;&gt;ImagesModule</title>
<path fill="none" stroke="black" d="M401,-122.11C401,-141.34 401,-169 401,-169 401,-169 308.1,-169 308.1,-169"/>
<polygon fill="black" stroke="black" points="308.1,-165.5 298.1,-169 308.1,-172.5 308.1,-165.5"/>
</g>
<!-- ImagesService -->
<g id="node2" class="node">
<title>ImagesService</title>
<ellipse fill="#fdb462" stroke="black" cx="248" cy="-104" rx="67.75" ry="18"/>
<text text-anchor="middle" x="248" y="-99.8" font-family="Times,serif" font-size="14.00">ImagesService</text>
</g>
<!-- ImagesService&#45;&gt;ImagesModule -->
<g id="edge2" class="edge">
<title>ImagesService&#45;&gt;ImagesModule</title>
<path fill="none" stroke="black" d="M248,-122.11C248,-122.11 248,-140.99 248,-140.99"/>
<polygon fill="black" stroke="black" points="244.5,-140.99 248,-150.99 251.5,-140.99 244.5,-140.99"/>
</g>
<!-- PrismaService -->
<g id="node3" class="node">
<title>PrismaService</title>
<ellipse fill="#fdb462" stroke="black" cx="95" cy="-104" rx="66.63" ry="18"/>
<text text-anchor="middle" x="95" y="-99.8" font-family="Times,serif" font-size="14.00">PrismaService</text>
</g>
<!-- PrismaService&#45;&gt;ImagesModule -->
<g id="edge3" class="edge">
<title>PrismaService&#45;&gt;ImagesModule</title>
<path fill="none" stroke="black" d="M95,-122.11C95,-141.34 95,-169 95,-169 95,-169 187.9,-169 187.9,-169"/>
<polygon fill="black" stroke="black" points="187.9,-172.5 197.9,-169 187.9,-165.5 187.9,-172.5"/>
</g>
</g>
</svg>
