<?xml version="1.0" encoding="UTF-8" standalone="no"?>
<!DOCTYPE svg PUBLIC "-//W3C//DTD SVG 1.1//EN"
 "http://www.w3.org/Graphics/SVG/1.1/DTD/svg11.dtd">
<!-- Generated by graphviz version 2.47.0 (20210316.0004)
 -->
<!-- Title: dependencies Pages: 1 -->
<svg width="1405pt" height="284pt"
 viewBox="0.00 0.00 1405.00 284.00" xmlns="http://www.w3.org/2000/svg" xmlns:xlink="http://www.w3.org/1999/xlink">
<g id="graph0" class="graph" transform="scale(1 1) rotate(0) translate(4 280)">
<title>dependencies</title>
<polygon fill="white" stroke="transparent" points="-4,4 -4,-280 1401,-280 1401,4 -4,4"/>
<text text-anchor="start" x="677.51" y="-42.4" font-family="Times-12" font-weight="bold" font-size="14.00">Legend</text>
<polygon fill="#ffffb3" stroke="transparent" points="464.5,-10 464.5,-30 484.5,-30 484.5,-10 464.5,-10"/>
<text text-anchor="start" x="488.13" y="-15.4" font-family="Times-12" font-size="14.00"> &#160;Declarations</text>
<polygon fill="#8dd3c7" stroke="transparent" points="577.5,-10 577.5,-30 597.5,-30 597.5,-10 577.5,-10"/>
<text text-anchor="start" x="601.23" y="-15.4" font-family="Times-12" font-size="14.00"> &#160;Module</text>
<polygon fill="#80b1d3" stroke="transparent" points="663.5,-10 663.5,-30 683.5,-30 683.5,-10 663.5,-10"/>
<text text-anchor="start" x="687.28" y="-15.4" font-family="Times-12" font-size="14.00"> &#160;Bootstrap</text>
<polygon fill="#fdb462" stroke="transparent" points="760.5,-10 760.5,-30 780.5,-30 780.5,-10 760.5,-10"/>
<text text-anchor="start" x="784.17" y="-15.4" font-family="Times-12" font-size="14.00"> &#160;Providers</text>
<polygon fill="#fb8072" stroke="transparent" points="856.5,-10 856.5,-30 876.5,-30 876.5,-10 856.5,-10"/>
<text text-anchor="start" x="880.23" y="-15.4" font-family="Times-12" font-size="14.00"> &#160;Exports</text>
<g id="clust1" class="cluster">
<title>cluster_AuthModule</title>
<polygon fill="none" stroke="black" stroke-dasharray="1,5" points="8,-70 8,-268 1389,-268 1389,-70 8,-70"/>
</g>
<g id="clust6" class="cluster">
<title>cluster_AuthModule_providers</title>
<polygon fill="none" stroke="black" points="164,-78 164,-130 1381,-130 1381,-78 164,-78"/>
</g>
<g id="clust4" class="cluster">
<title>cluster_AuthModule_exports</title>
<polygon fill="none" stroke="black" points="713,-208 713,-260 819,-260 819,-208 713,-208"/>
</g>
<g id="clust3" class="cluster">
<title>cluster_AuthModule_imports</title>
<polygon fill="none" stroke="black" points="16,-78 16,-130 156,-130 156,-78 16,-78"/>
</g>
<!-- UtilisateursModule -->
<g id="node1" class="node">
<title>UtilisateursModule</title>
<polygon fill="#8dd3c7" stroke="black" points="148.09,-122 145.09,-126 124.09,-126 121.09,-122 23.91,-122 23.91,-86 148.09,-86 148.09,-122"/>
<text text-anchor="middle" x="86" y="-99.8" font-family="Times,serif" font-size="14.00">UtilisateursModule</text>
</g>
<!-- AuthModule -->
<g id="node2" class="node">
<title>AuthModule</title>
<polygon fill="#8dd3c7" stroke="black" points="809.55,-187 806.55,-191 785.55,-191 782.55,-187 722.45,-187 722.45,-151 809.55,-151 809.55,-187"/>
<text text-anchor="middle" x="766" y="-164.8" font-family="Times,serif" font-size="14.00">AuthModule</text>
</g>
<!-- UtilisateursModule&#45;&gt;AuthModule -->
<g id="edge1" class="edge">
<title>UtilisateursModule&#45;&gt;AuthModule</title>
<path fill="none" stroke="black" d="M86,-122.29C86,-144.21 86,-178 86,-178 86,-178 712.43,-178 712.43,-178"/>
<polygon fill="black" stroke="black" points="712.43,-181.5 722.43,-178 712.43,-174.5 712.43,-181.5"/>
</g>
<!-- AuthService  -->
<g id="node3" class="node">
<title>AuthService </title>
<polygon fill="#fb8072" stroke="black" points="810.98,-252 721.02,-252 721.02,-216 810.98,-216 810.98,-252"/>
<text text-anchor="middle" x="766" y="-229.8" font-family="Times,serif" font-size="14.00">AuthService </text>
</g>
<!-- AuthModule&#45;&gt;AuthService  -->
<g id="edge2" class="edge">
<title>AuthModule&#45;&gt;AuthService </title>
<path fill="none" stroke="black" stroke-dasharray="5,2" d="M766,-187.11C766,-187.11 766,-205.99 766,-205.99"/>
<polygon fill="black" stroke="black" points="762.5,-205.99 766,-215.99 769.5,-205.99 762.5,-205.99"/>
</g>
<!-- AuthService -->
<g id="node4" class="node">
<title>AuthService</title>
<ellipse fill="#fdb462" stroke="black" cx="1314" cy="-104" rx="59.11" ry="18"/>
<text text-anchor="middle" x="1314" y="-99.8" font-family="Times,serif" font-size="14.00">AuthService</text>
</g>
<!-- AuthService&#45;&gt;AuthModule -->
<g id="edge3" class="edge">
<title>AuthService&#45;&gt;AuthModule</title>
<path fill="none" stroke="black" d="M1314,-122.29C1314,-144.21 1314,-178 1314,-178 1314,-178 819.92,-178 819.92,-178"/>
<polygon fill="black" stroke="black" points="819.92,-174.5 809.92,-178 819.92,-181.5 819.92,-174.5"/>
</g>
<!-- JwtStrategy -->
<g id="node5" class="node">
<title>JwtStrategy</title>
<ellipse fill="#fdb462" stroke="black" cx="1180" cy="-104" rx="56.76" ry="18"/>
<text text-anchor="middle" x="1180" y="-99.8" font-family="Times,serif" font-size="14.00">JwtStrategy</text>
</g>
<!-- JwtStrategy&#45;&gt;AuthModule -->
<g id="edge4" class="edge">
<title>JwtStrategy&#45;&gt;AuthModule</title>
<path fill="none" stroke="black" d="M1180,-122.11C1180,-141.34 1180,-169 1180,-169 1180,-169 819.91,-169 819.91,-169"/>
<polygon fill="black" stroke="black" points="819.91,-165.5 809.91,-169 819.91,-172.5 819.91,-165.5"/>
</g>
<!-- LocalStrategy -->
<g id="node6" class="node">
<title>LocalStrategy</title>
<ellipse fill="#fdb462" stroke="black" cx="1040" cy="-104" rx="65.41" ry="18"/>
<text text-anchor="middle" x="1040" y="-99.8" font-family="Times,serif" font-size="14.00">LocalStrategy</text>
</g>
<!-- LocalStrategy&#45;&gt;AuthModule -->
<g id="edge5" class="edge">
<title>LocalStrategy&#45;&gt;AuthModule</title>
<path fill="none" stroke="black" d="M1040,-122.03C1040,-138.4 1040,-160 1040,-160 1040,-160 819.72,-160 819.72,-160"/>
<polygon fill="black" stroke="black" points="819.72,-156.5 809.72,-160 819.72,-163.5 819.72,-156.5"/>
</g>
<!-- PasswordResetService -->
<g id="node7" class="node">
<title>PasswordResetService</title>
<ellipse fill="#fdb462" stroke="black" cx="858" cy="-104" rx="98.41" ry="18"/>
<text text-anchor="middle" x="858" y="-99.8" font-family="Times,serif" font-size="14.00">PasswordResetService</text>
</g>
<!-- PasswordResetService&#45;&gt;AuthModule -->
<g id="edge6" class="edge">
<title>PasswordResetService&#45;&gt;AuthModule</title>
<path fill="none" stroke="black" d="M784.66,-116.23C784.66,-116.23 784.66,-140.68 784.66,-140.68"/>
<polygon fill="black" stroke="black" points="781.16,-140.68 784.66,-150.68 788.16,-140.68 781.16,-140.68"/>
</g>
<!-- PrismaService -->
<g id="node8" class="node">
<title>PrismaService</title>
<ellipse fill="#fdb462" stroke="black" cx="675" cy="-104" rx="66.63" ry="18"/>
<text text-anchor="middle" x="675" y="-99.8" font-family="Times,serif" font-size="14.00">PrismaService</text>
</g>
<!-- PrismaService&#45;&gt;AuthModule -->
<g id="edge7" class="edge">
<title>PrismaService&#45;&gt;AuthModule</title>
<path fill="none" stroke="black" d="M732.02,-113.59C732.02,-113.59 732.02,-140.75 732.02,-140.75"/>
<polygon fill="black" stroke="black" points="728.52,-140.75 732.02,-150.75 735.52,-140.75 728.52,-140.75"/>
</g>
<!-- UtilisateursService -->
<g id="node9" class="node">
<title>UtilisateursService</title>
<ellipse fill="#fdb462" stroke="black" cx="506" cy="-104" rx="84.52" ry="18"/>
<text text-anchor="middle" x="506" y="-99.8" font-family="Times,serif" font-size="14.00">UtilisateursService</text>
</g>
<!-- UtilisateursService&#45;&gt;AuthModule -->
<g id="edge8" class="edge">
<title>UtilisateursService&#45;&gt;AuthModule</title>
<path fill="none" stroke="black" d="M506,-122.03C506,-138.4 506,-160 506,-160 506,-160 712.19,-160 712.19,-160"/>
<polygon fill="black" stroke="black" points="712.19,-163.5 722.19,-160 712.19,-156.5 712.19,-163.5"/>
</g>
<!-- VisitorCounterMiddleware -->
<g id="node10" class="node">
<title>VisitorCounterMiddleware</title>
<ellipse fill="#fdb462" stroke="black" cx="288" cy="-104" rx="115.75" ry="18"/>
<text text-anchor="middle" x="288" y="-99.8" font-family="Times,serif" font-size="14.00">VisitorCounterMiddleware</text>
</g>
<!-- VisitorCounterMiddleware&#45;&gt;AuthModule -->
<g id="edge9" class="edge">
<title>VisitorCounterMiddleware&#45;&gt;AuthModule</title>
<path fill="none" stroke="black" d="M288,-122.11C288,-141.34 288,-169 288,-169 288,-169 712.31,-169 712.31,-169"/>
<polygon fill="black" stroke="black" points="712.31,-172.5 722.31,-169 712.31,-165.5 712.31,-172.5"/>
</g>
</g>
</svg>
