<?xml version="1.0" encoding="UTF-8" standalone="no"?>
<!DOCTYPE svg PUBLIC "-//W3C//DTD SVG 1.1//EN"
 "http://www.w3.org/Graphics/SVG/1.1/DTD/svg11.dtd">
<!-- Generated by graphviz version 2.47.0 (20210316.0004)
 -->
<!-- Title: dependencies Pages: 1 -->
<svg width="1578pt" height="284pt"
 viewBox="0.00 0.00 1578.00 284.00" xmlns="http://www.w3.org/2000/svg" xmlns:xlink="http://www.w3.org/1999/xlink">
<g id="graph0" class="graph" transform="scale(1 1) rotate(0) translate(4 280)">
<title>dependencies</title>
<polygon fill="white" stroke="transparent" points="-4,4 -4,-280 1574,-280 1574,4 -4,4"/>
<text text-anchor="start" x="764.01" y="-42.4" font-family="Times-12" font-weight="bold" font-size="14.00">Legend</text>
<polygon fill="#ffffb3" stroke="transparent" points="551,-10 551,-30 571,-30 571,-10 551,-10"/>
<text text-anchor="start" x="574.63" y="-15.4" font-family="Times-12" font-size="14.00"> &#160;Declarations</text>
<polygon fill="#8dd3c7" stroke="transparent" points="664,-10 664,-30 684,-30 684,-10 664,-10"/>
<text text-anchor="start" x="687.73" y="-15.4" font-family="Times-12" font-size="14.00"> &#160;Module</text>
<polygon fill="#80b1d3" stroke="transparent" points="750,-10 750,-30 770,-30 770,-10 750,-10"/>
<text text-anchor="start" x="773.78" y="-15.4" font-family="Times-12" font-size="14.00"> &#160;Bootstrap</text>
<polygon fill="#fdb462" stroke="transparent" points="847,-10 847,-30 867,-30 867,-10 847,-10"/>
<text text-anchor="start" x="870.67" y="-15.4" font-family="Times-12" font-size="14.00"> &#160;Providers</text>
<polygon fill="#fb8072" stroke="transparent" points="943,-10 943,-30 963,-30 963,-10 943,-10"/>
<text text-anchor="start" x="966.73" y="-15.4" font-family="Times-12" font-size="14.00"> &#160;Exports</text>
<g id="clust1" class="cluster">
<title>cluster_AuthModule</title>
<polygon fill="none" stroke="black" stroke-dasharray="1,5" points="8,-70 8,-268 1562,-268 1562,-70 8,-70"/>
</g>
<g id="clust3" class="cluster">
<title>cluster_AuthModule_imports</title>
<polygon fill="none" stroke="black" points="1414,-78 1414,-130 1554,-130 1554,-78 1414,-78"/>
</g>
<g id="clust4" class="cluster">
<title>cluster_AuthModule_exports</title>
<polygon fill="none" stroke="black" points="851,-208 851,-260 957,-260 957,-208 851,-208"/>
</g>
<g id="clust6" class="cluster">
<title>cluster_AuthModule_providers</title>
<polygon fill="none" stroke="black" points="16,-78 16,-130 1406,-130 1406,-78 16,-78"/>
</g>
<!-- UtilisateursModule -->
<g id="node1" class="node">
<title>UtilisateursModule</title>
<polygon fill="#8dd3c7" stroke="black" points="1546.09,-122 1543.09,-126 1522.09,-126 1519.09,-122 1421.91,-122 1421.91,-86 1546.09,-86 1546.09,-122"/>
<text text-anchor="middle" x="1484" y="-99.8" font-family="Times,serif" font-size="14.00">UtilisateursModule</text>
</g>
<!-- AuthModule -->
<g id="node2" class="node">
<title>AuthModule</title>
<polygon fill="#8dd3c7" stroke="black" points="947.55,-187 944.55,-191 923.55,-191 920.55,-187 860.45,-187 860.45,-151 947.55,-151 947.55,-187"/>
<text text-anchor="middle" x="904" y="-164.8" font-family="Times,serif" font-size="14.00">AuthModule</text>
</g>
<!-- UtilisateursModule&#45;&gt;AuthModule -->
<g id="edge1" class="edge">
<title>UtilisateursModule&#45;&gt;AuthModule</title>
<path fill="none" stroke="black" d="M1484,-122.01C1484,-144.49 1484,-180 1484,-180 1484,-180 957.59,-180 957.59,-180"/>
<polygon fill="black" stroke="black" points="957.59,-176.5 947.59,-180 957.59,-183.5 957.59,-176.5"/>
</g>
<!-- AuthService  -->
<g id="node3" class="node">
<title>AuthService </title>
<polygon fill="#fb8072" stroke="black" points="948.98,-252 859.02,-252 859.02,-216 948.98,-216 948.98,-252"/>
<text text-anchor="middle" x="904" y="-229.8" font-family="Times,serif" font-size="14.00">AuthService </text>
</g>
<!-- AuthModule&#45;&gt;AuthService  -->
<g id="edge2" class="edge">
<title>AuthModule&#45;&gt;AuthService </title>
<path fill="none" stroke="black" stroke-dasharray="5,2" d="M904,-187.11C904,-187.11 904,-205.99 904,-205.99"/>
<polygon fill="black" stroke="black" points="900.5,-205.99 904,-215.99 907.5,-205.99 900.5,-205.99"/>
</g>
<!-- AuthService -->
<g id="node4" class="node">
<title>AuthService</title>
<ellipse fill="#fdb462" stroke="black" cx="1339" cy="-104" rx="59.11" ry="18"/>
<text text-anchor="middle" x="1339" y="-99.8" font-family="Times,serif" font-size="14.00">AuthService</text>
</g>
<!-- AuthService&#45;&gt;AuthModule -->
<g id="edge3" class="edge">
<title>AuthService&#45;&gt;AuthModule</title>
<path fill="none" stroke="black" d="M1339,-122.13C1339,-142.57 1339,-173 1339,-173 1339,-173 957.7,-173 957.7,-173"/>
<polygon fill="black" stroke="black" points="957.7,-169.5 947.7,-173 957.7,-176.5 957.7,-169.5"/>
</g>
<!-- JwtStrategy -->
<g id="node5" class="node">
<title>JwtStrategy</title>
<ellipse fill="#fdb462" stroke="black" cx="1205" cy="-104" rx="56.76" ry="18"/>
<text text-anchor="middle" x="1205" y="-99.8" font-family="Times,serif" font-size="14.00">JwtStrategy</text>
</g>
<!-- JwtStrategy&#45;&gt;AuthModule -->
<g id="edge4" class="edge">
<title>JwtStrategy&#45;&gt;AuthModule</title>
<path fill="none" stroke="black" d="M1205,-122.27C1205,-140.56 1205,-166 1205,-166 1205,-166 957.77,-166 957.77,-166"/>
<polygon fill="black" stroke="black" points="957.77,-162.5 947.77,-166 957.77,-169.5 957.77,-162.5"/>
</g>
<!-- LocalStrategy -->
<g id="node6" class="node">
<title>LocalStrategy</title>
<ellipse fill="#fdb462" stroke="black" cx="1065" cy="-104" rx="65.41" ry="18"/>
<text text-anchor="middle" x="1065" y="-99.8" font-family="Times,serif" font-size="14.00">LocalStrategy</text>
</g>
<!-- LocalStrategy&#45;&gt;AuthModule -->
<g id="edge5" class="edge">
<title>LocalStrategy&#45;&gt;AuthModule</title>
<path fill="none" stroke="black" d="M1065,-122.01C1065,-138.05 1065,-159 1065,-159 1065,-159 957.57,-159 957.57,-159"/>
<polygon fill="black" stroke="black" points="957.57,-155.5 947.57,-159 957.57,-162.5 957.57,-155.5"/>
</g>
<!-- MessagesService -->
<g id="node7" class="node">
<title>MessagesService</title>
<ellipse fill="#fdb462" stroke="black" cx="904" cy="-104" rx="77.56" ry="18"/>
<text text-anchor="middle" x="904" y="-99.8" font-family="Times,serif" font-size="14.00">MessagesService</text>
</g>
<!-- MessagesService&#45;&gt;AuthModule -->
<g id="edge6" class="edge">
<title>MessagesService&#45;&gt;AuthModule</title>
<path fill="none" stroke="black" d="M904,-122.11C904,-122.11 904,-140.99 904,-140.99"/>
<polygon fill="black" stroke="black" points="900.5,-140.99 904,-150.99 907.5,-140.99 900.5,-140.99"/>
</g>
<!-- PasswordResetService -->
<g id="node8" class="node">
<title>PasswordResetService</title>
<ellipse fill="#fdb462" stroke="black" cx="710" cy="-104" rx="98.41" ry="18"/>
<text text-anchor="middle" x="710" y="-99.8" font-family="Times,serif" font-size="14.00">PasswordResetService</text>
</g>
<!-- PasswordResetService&#45;&gt;AuthModule -->
<g id="edge7" class="edge">
<title>PasswordResetService&#45;&gt;AuthModule</title>
<path fill="none" stroke="black" d="M710,-122.01C710,-138.05 710,-159 710,-159 710,-159 849.98,-159 849.98,-159"/>
<polygon fill="black" stroke="black" points="849.98,-162.5 859.98,-159 849.98,-155.5 849.98,-162.5"/>
</g>
<!-- PrismaService -->
<g id="node9" class="node">
<title>PrismaService</title>
<ellipse fill="#fdb462" stroke="black" cx="527" cy="-104" rx="66.63" ry="18"/>
<text text-anchor="middle" x="527" y="-99.8" font-family="Times,serif" font-size="14.00">PrismaService</text>
</g>
<!-- PrismaService&#45;&gt;AuthModule -->
<g id="edge8" class="edge">
<title>PrismaService&#45;&gt;AuthModule</title>
<path fill="none" stroke="black" d="M527,-122.27C527,-140.56 527,-166 527,-166 527,-166 850.39,-166 850.39,-166"/>
<polygon fill="black" stroke="black" points="850.39,-169.5 860.39,-166 850.38,-162.5 850.39,-169.5"/>
</g>
<!-- UtilisateursService -->
<g id="node10" class="node">
<title>UtilisateursService</title>
<ellipse fill="#fdb462" stroke="black" cx="358" cy="-104" rx="84.52" ry="18"/>
<text text-anchor="middle" x="358" y="-99.8" font-family="Times,serif" font-size="14.00">UtilisateursService</text>
</g>
<!-- UtilisateursService&#45;&gt;AuthModule -->
<g id="edge9" class="edge">
<title>UtilisateursService&#45;&gt;AuthModule</title>
<path fill="none" stroke="black" d="M358,-122.13C358,-142.57 358,-173 358,-173 358,-173 850.24,-173 850.24,-173"/>
<polygon fill="black" stroke="black" points="850.24,-176.5 860.24,-173 850.24,-169.5 850.24,-176.5"/>
</g>
<!-- VisitorCounterMiddleware -->
<g id="node11" class="node">
<title>VisitorCounterMiddleware</title>
<ellipse fill="#fdb462" stroke="black" cx="140" cy="-104" rx="115.75" ry="18"/>
<text text-anchor="middle" x="140" y="-99.8" font-family="Times,serif" font-size="14.00">VisitorCounterMiddleware</text>
</g>
<!-- VisitorCounterMiddleware&#45;&gt;AuthModule -->
<g id="edge10" class="edge">
<title>VisitorCounterMiddleware&#45;&gt;AuthModule</title>
<path fill="none" stroke="black" d="M140,-122.01C140,-144.49 140,-180 140,-180 140,-180 850.18,-180 850.18,-180"/>
<polygon fill="black" stroke="black" points="850.18,-183.5 860.18,-180 850.18,-176.5 850.18,-183.5"/>
</g>
</g>
</svg>
