<?xml version="1.0" encoding="UTF-8" standalone="no"?>
<!DOCTYPE svg PUBLIC "-//W3C//DTD SVG 1.1//EN"
 "http://www.w3.org/Graphics/SVG/1.1/DTD/svg11.dtd">
<!-- Generated by graphviz version 2.47.0 (20210316.0004)
 -->
<!-- Title: dependencies Pages: 1 -->
<svg width="504pt" height="284pt"
 viewBox="0.00 0.00 504.00 284.00" xmlns="http://www.w3.org/2000/svg" xmlns:xlink="http://www.w3.org/1999/xlink">
<g id="graph0" class="graph" transform="scale(1 1) rotate(0) translate(4 280)">
<title>dependencies</title>
<polygon fill="white" stroke="transparent" points="-4,4 -4,-280 500,-280 500,4 -4,4"/>
<text text-anchor="start" x="227.01" y="-42.4" font-family="Times-12" font-weight="bold" font-size="14.00">Legend</text>
<polygon fill="#ffffb3" stroke="transparent" points="14,-10 14,-30 34,-30 34,-10 14,-10"/>
<text text-anchor="start" x="37.63" y="-15.4" font-family="Times-12" font-size="14.00"> &#160;Declarations</text>
<polygon fill="#8dd3c7" stroke="transparent" points="127,-10 127,-30 147,-30 147,-10 127,-10"/>
<text text-anchor="start" x="150.73" y="-15.4" font-family="Times-12" font-size="14.00"> &#160;Module</text>
<polygon fill="#80b1d3" stroke="transparent" points="213,-10 213,-30 233,-30 233,-10 213,-10"/>
<text text-anchor="start" x="236.78" y="-15.4" font-family="Times-12" font-size="14.00"> &#160;Bootstrap</text>
<polygon fill="#fdb462" stroke="transparent" points="310,-10 310,-30 330,-30 330,-10 310,-10"/>
<text text-anchor="start" x="333.67" y="-15.4" font-family="Times-12" font-size="14.00"> &#160;Providers</text>
<polygon fill="#fb8072" stroke="transparent" points="406,-10 406,-30 426,-30 426,-10 406,-10"/>
<text text-anchor="start" x="429.73" y="-15.4" font-family="Times-12" font-size="14.00"> &#160;Exports</text>
<g id="clust1" class="cluster">
<title>cluster_UtilisateursModule</title>
<polygon fill="none" stroke="black" stroke-dasharray="1,5" points="71.5,-70 71.5,-268 424.5,-268 424.5,-70 71.5,-70"/>
</g>
<g id="clust6" class="cluster">
<title>cluster_UtilisateursModule_providers</title>
<polygon fill="none" stroke="black" points="79.5,-78 79.5,-130 416.5,-130 416.5,-78 79.5,-78"/>
</g>
<g id="clust4" class="cluster">
<title>cluster_UtilisateursModule_exports</title>
<polygon fill="none" stroke="black" points="185.5,-208 185.5,-260 327.5,-260 327.5,-208 185.5,-208"/>
</g>
<!-- UtilisateursService  -->
<g id="node1" class="node">
<title>UtilisateursService </title>
<polygon fill="#fb8072" stroke="black" points="319.52,-252 193.48,-252 193.48,-216 319.52,-216 319.52,-252"/>
<text text-anchor="middle" x="256.5" y="-229.8" font-family="Times,serif" font-size="14.00">UtilisateursService </text>
</g>
<!-- UtilisateursModule -->
<g id="node2" class="node">
<title>UtilisateursModule</title>
<polygon fill="#8dd3c7" stroke="black" points="318.59,-187 315.59,-191 294.59,-191 291.59,-187 194.41,-187 194.41,-151 318.59,-151 318.59,-187"/>
<text text-anchor="middle" x="256.5" y="-164.8" font-family="Times,serif" font-size="14.00">UtilisateursModule</text>
</g>
<!-- UtilisateursModule&#45;&gt;UtilisateursService  -->
<g id="edge1" class="edge">
<title>UtilisateursModule&#45;&gt;UtilisateursService </title>
<path fill="none" stroke="black" stroke-dasharray="5,2" d="M256.5,-187.11C256.5,-187.11 256.5,-205.99 256.5,-205.99"/>
<polygon fill="black" stroke="black" points="253,-205.99 256.5,-215.99 260,-205.99 253,-205.99"/>
</g>
<!-- PrismaService -->
<g id="node3" class="node">
<title>PrismaService</title>
<ellipse fill="#fdb462" stroke="black" cx="341.5" cy="-104" rx="66.63" ry="18"/>
<text text-anchor="middle" x="341.5" y="-99.8" font-family="Times,serif" font-size="14.00">PrismaService</text>
</g>
<!-- PrismaService&#45;&gt;UtilisateursModule -->
<g id="edge2" class="edge">
<title>PrismaService&#45;&gt;UtilisateursModule</title>
<path fill="none" stroke="black" d="M296.62,-117.47C296.62,-117.47 296.62,-140.86 296.62,-140.86"/>
<polygon fill="black" stroke="black" points="293.12,-140.86 296.62,-150.86 300.12,-140.86 293.12,-140.86"/>
</g>
<!-- UtilisateursService -->
<g id="node4" class="node">
<title>UtilisateursService</title>
<ellipse fill="#fdb462" stroke="black" cx="172.5" cy="-104" rx="84.52" ry="18"/>
<text text-anchor="middle" x="172.5" y="-99.8" font-family="Times,serif" font-size="14.00">UtilisateursService</text>
</g>
<!-- UtilisateursService&#45;&gt;UtilisateursModule -->
<g id="edge3" class="edge">
<title>UtilisateursService&#45;&gt;UtilisateursModule</title>
<path fill="none" stroke="black" d="M225.73,-118.1C225.73,-118.1 225.73,-140.72 225.73,-140.72"/>
<polygon fill="black" stroke="black" points="222.23,-140.72 225.73,-150.72 229.23,-140.72 222.23,-140.72"/>
</g>
</g>
</svg>
