<?xml version="1.0" encoding="UTF-8" standalone="no"?>
<!DOCTYPE svg PUBLIC "-//W3C//DTD SVG 1.1//EN"
 "http://www.w3.org/Graphics/SVG/1.1/DTD/svg11.dtd">
<!-- Generated by graphviz version 2.47.0 (20210316.0004)
 -->
<!-- Title: dependencies Pages: 1 -->
<svg width="1510pt" height="211pt"
 viewBox="0.00 0.00 1510.00 211.00" xmlns="http://www.w3.org/2000/svg" xmlns:xlink="http://www.w3.org/1999/xlink">
<g id="graph0" class="graph" transform="scale(1 1) rotate(0) translate(4 207)">
<title>dependencies</title>
<polygon fill="white" stroke="transparent" points="-4,4 -4,-207 1506,-207 1506,4 -4,4"/>
<text text-anchor="start" x="730.01" y="-42.4" font-family="Times-12" font-weight="bold" font-size="14.00">Legend</text>
<polygon fill="#ffffb3" stroke="transparent" points="517,-10 517,-30 537,-30 537,-10 517,-10"/>
<text text-anchor="start" x="540.63" y="-15.4" font-family="Times-12" font-size="14.00"> &#160;Declarations</text>
<polygon fill="#8dd3c7" stroke="transparent" points="630,-10 630,-30 650,-30 650,-10 630,-10"/>
<text text-anchor="start" x="653.73" y="-15.4" font-family="Times-12" font-size="14.00"> &#160;Module</text>
<polygon fill="#80b1d3" stroke="transparent" points="716,-10 716,-30 736,-30 736,-10 716,-10"/>
<text text-anchor="start" x="739.78" y="-15.4" font-family="Times-12" font-size="14.00"> &#160;Bootstrap</text>
<polygon fill="#fdb462" stroke="transparent" points="813,-10 813,-30 833,-30 833,-10 813,-10"/>
<text text-anchor="start" x="836.67" y="-15.4" font-family="Times-12" font-size="14.00"> &#160;Providers</text>
<polygon fill="#fb8072" stroke="transparent" points="909,-10 909,-30 929,-30 929,-10 909,-10"/>
<text text-anchor="start" x="932.73" y="-15.4" font-family="Times-12" font-size="14.00"> &#160;Exports</text>
<g id="clust1" class="cluster">
<title>cluster_AppModule</title>
<polygon fill="none" stroke="black" stroke-dasharray="1,5" points="8,-70 8,-195 1494,-195 1494,-70 8,-70"/>
</g>
<g id="clust3" class="cluster">
<title>cluster_AppModule_imports</title>
<polygon fill="none" stroke="black" points="554,-78 554,-130 1486,-130 1486,-78 554,-78"/>
</g>
<g id="clust6" class="cluster">
<title>cluster_AppModule_providers</title>
<polygon fill="none" stroke="black" points="16,-78 16,-130 546,-130 546,-78 16,-78"/>
</g>
<!-- AlertModule -->
<g id="node1" class="node">
<title>AlertModule</title>
<polygon fill="#8dd3c7" stroke="black" points="1478.31,-122 1475.31,-126 1454.31,-126 1451.31,-122 1389.69,-122 1389.69,-86 1478.31,-86 1478.31,-122"/>
<text text-anchor="middle" x="1434" y="-99.8" font-family="Times,serif" font-size="14.00">AlertModule</text>
</g>
<!-- AppModule -->
<g id="node9" class="node">
<title>AppModule</title>
<polygon fill="#8dd3c7" stroke="black" points="912.66,-187 909.66,-191 888.66,-191 885.66,-187 829.34,-187 829.34,-151 912.66,-151 912.66,-187"/>
<text text-anchor="middle" x="871" y="-164.8" font-family="Times,serif" font-size="14.00">AppModule</text>
</g>
<!-- AlertModule&#45;&gt;AppModule -->
<g id="edge1" class="edge">
<title>AlertModule&#45;&gt;AppModule</title>
<path fill="none" stroke="black" d="M1434,-122.09C1434,-145.13 1434,-182 1434,-182 1434,-182 922.86,-182 922.86,-182"/>
<polygon fill="black" stroke="black" points="922.86,-178.5 912.86,-182 922.86,-185.5 922.86,-178.5"/>
</g>
<!-- ArticleModule -->
<g id="node2" class="node">
<title>ArticleModule</title>
<polygon fill="#8dd3c7" stroke="black" points="1372.42,-122 1369.42,-126 1348.42,-126 1345.42,-122 1273.58,-122 1273.58,-86 1372.42,-86 1372.42,-122"/>
<text text-anchor="middle" x="1323" y="-99.8" font-family="Times,serif" font-size="14.00">ArticleModule</text>
</g>
<!-- ArticleModule&#45;&gt;AppModule -->
<g id="edge2" class="edge">
<title>ArticleModule&#45;&gt;AppModule</title>
<path fill="none" stroke="black" d="M1323,-122.28C1323,-143.32 1323,-175 1323,-175 1323,-175 922.71,-175 922.71,-175"/>
<polygon fill="black" stroke="black" points="922.71,-171.5 912.71,-175 922.71,-178.5 922.71,-171.5"/>
</g>
<!-- AuthModule -->
<g id="node3" class="node">
<title>AuthModule</title>
<polygon fill="#8dd3c7" stroke="black" points="1255.55,-122 1252.55,-126 1231.55,-126 1228.55,-122 1168.45,-122 1168.45,-86 1255.55,-86 1255.55,-122"/>
<text text-anchor="middle" x="1212" y="-99.8" font-family="Times,serif" font-size="14.00">AuthModule</text>
</g>
<!-- AuthModule&#45;&gt;AppModule -->
<g id="edge3" class="edge">
<title>AuthModule&#45;&gt;AppModule</title>
<path fill="none" stroke="black" d="M1212,-122.11C1212,-141.34 1212,-169 1212,-169 1212,-169 922.81,-169 922.81,-169"/>
<polygon fill="black" stroke="black" points="922.81,-165.5 912.81,-169 922.81,-172.5 922.81,-165.5"/>
</g>
<!-- ImagesModule -->
<g id="node4" class="node">
<title>ImagesModule</title>
<polygon fill="#8dd3c7" stroke="black" points="1149.97,-122 1146.97,-126 1125.97,-126 1122.97,-122 1050.03,-122 1050.03,-86 1149.97,-86 1149.97,-122"/>
<text text-anchor="middle" x="1100" y="-99.8" font-family="Times,serif" font-size="14.00">ImagesModule</text>
</g>
<!-- ImagesModule&#45;&gt;AppModule -->
<g id="edge4" class="edge">
<title>ImagesModule&#45;&gt;AppModule</title>
<path fill="none" stroke="black" d="M1100,-122.02C1100,-139.37 1100,-163 1100,-163 1100,-163 922.74,-163 922.74,-163"/>
<polygon fill="black" stroke="black" points="922.74,-159.5 912.74,-163 922.74,-166.5 922.74,-159.5"/>
</g>
<!-- MailModule -->
<g id="node5" class="node">
<title>MailModule</title>
<polygon fill="#8dd3c7" stroke="black" points="1031.99,-122 1028.99,-126 1007.99,-126 1004.99,-122 946.01,-122 946.01,-86 1031.99,-86 1031.99,-122"/>
<text text-anchor="middle" x="989" y="-99.8" font-family="Times,serif" font-size="14.00">MailModule</text>
</g>
<!-- MailModule&#45;&gt;AppModule -->
<g id="edge5" class="edge">
<title>MailModule&#45;&gt;AppModule</title>
<path fill="none" stroke="black" d="M989,-122.24C989,-137.57 989,-157 989,-157 989,-157 922.93,-157 922.93,-157"/>
<polygon fill="black" stroke="black" points="922.93,-153.5 912.93,-157 922.93,-160.5 922.93,-153.5"/>
</g>
<!-- MessagesModule -->
<g id="node6" class="node">
<title>MessagesModule</title>
<polygon fill="#8dd3c7" stroke="black" points="927.97,-122 924.97,-126 903.97,-126 900.97,-122 814.03,-122 814.03,-86 927.97,-86 927.97,-122"/>
<text text-anchor="middle" x="871" y="-99.8" font-family="Times,serif" font-size="14.00">MessagesModule</text>
</g>
<!-- MessagesModule&#45;&gt;AppModule -->
<g id="edge6" class="edge">
<title>MessagesModule&#45;&gt;AppModule</title>
<path fill="none" stroke="black" d="M871,-122.11C871,-122.11 871,-140.99 871,-140.99"/>
<polygon fill="black" stroke="black" points="867.5,-140.99 871,-150.99 874.5,-140.99 867.5,-140.99"/>
</g>
<!-- PagesModule -->
<g id="node7" class="node">
<title>PagesModule</title>
<polygon fill="#8dd3c7" stroke="black" points="796.21,-122 793.21,-126 772.21,-126 769.21,-122 703.79,-122 703.79,-86 796.21,-86 796.21,-122"/>
<text text-anchor="middle" x="750" y="-99.8" font-family="Times,serif" font-size="14.00">PagesModule</text>
</g>
<!-- PagesModule&#45;&gt;AppModule -->
<g id="edge7" class="edge">
<title>PagesModule&#45;&gt;AppModule</title>
<path fill="none" stroke="black" d="M750,-122.24C750,-137.57 750,-157 750,-157 750,-157 819.02,-157 819.02,-157"/>
<polygon fill="black" stroke="black" points="819.02,-160.5 829.02,-157 819.02,-153.5 819.02,-160.5"/>
</g>
<!-- UtilisateursModule -->
<g id="node8" class="node">
<title>UtilisateursModule</title>
<polygon fill="#8dd3c7" stroke="black" points="686.09,-122 683.09,-126 662.09,-126 659.09,-122 561.91,-122 561.91,-86 686.09,-86 686.09,-122"/>
<text text-anchor="middle" x="624" y="-99.8" font-family="Times,serif" font-size="14.00">UtilisateursModule</text>
</g>
<!-- UtilisateursModule&#45;&gt;AppModule -->
<g id="edge8" class="edge">
<title>UtilisateursModule&#45;&gt;AppModule</title>
<path fill="none" stroke="black" d="M624,-122.02C624,-139.37 624,-163 624,-163 624,-163 819.1,-163 819.1,-163"/>
<polygon fill="black" stroke="black" points="819.1,-166.5 829.1,-163 819.1,-159.5 819.1,-166.5"/>
</g>
<!-- AppService -->
<g id="node10" class="node">
<title>AppService</title>
<ellipse fill="#fdb462" stroke="black" cx="481" cy="-104" rx="56.74" ry="18"/>
<text text-anchor="middle" x="481" y="-99.8" font-family="Times,serif" font-size="14.00">AppService</text>
</g>
<!-- AppService&#45;&gt;AppModule -->
<g id="edge9" class="edge">
<title>AppService&#45;&gt;AppModule</title>
<path fill="none" stroke="black" d="M481,-122.11C481,-141.34 481,-169 481,-169 481,-169 819.26,-169 819.26,-169"/>
<polygon fill="black" stroke="black" points="819.26,-172.5 829.26,-169 819.26,-165.5 819.26,-172.5"/>
</g>
<!-- PrismaService -->
<g id="node11" class="node">
<title>PrismaService</title>
<ellipse fill="#fdb462" stroke="black" cx="340" cy="-104" rx="66.63" ry="18"/>
<text text-anchor="middle" x="340" y="-99.8" font-family="Times,serif" font-size="14.00">PrismaService</text>
</g>
<!-- PrismaService&#45;&gt;AppModule -->
<g id="edge10" class="edge">
<title>PrismaService&#45;&gt;AppModule</title>
<path fill="none" stroke="black" d="M340,-122.28C340,-143.32 340,-175 340,-175 340,-175 819.33,-175 819.33,-175"/>
<polygon fill="black" stroke="black" points="819.33,-178.5 829.33,-175 819.33,-171.5 819.33,-178.5"/>
</g>
<!-- VisitorCounterMiddleware -->
<g id="node12" class="node">
<title>VisitorCounterMiddleware</title>
<ellipse fill="#fdb462" stroke="black" cx="140" cy="-104" rx="115.75" ry="18"/>
<text text-anchor="middle" x="140" y="-99.8" font-family="Times,serif" font-size="14.00">VisitorCounterMiddleware</text>
</g>
<!-- VisitorCounterMiddleware&#45;&gt;AppModule -->
<g id="edge11" class="edge">
<title>VisitorCounterMiddleware&#45;&gt;AppModule</title>
<path fill="none" stroke="black" d="M140,-122.09C140,-145.13 140,-182 140,-182 140,-182 819.34,-182 819.34,-182"/>
<polygon fill="black" stroke="black" points="819.34,-185.5 829.34,-182 819.34,-178.5 819.34,-185.5"/>
</g>
</g>
</svg>
