<?xml version="1.0" encoding="UTF-8" standalone="no"?>
<!DOCTYPE svg PUBLIC "-//W3C//DTD SVG 1.1//EN"
 "http://www.w3.org/Graphics/SVG/1.1/DTD/svg11.dtd">
<!-- Generated by graphviz version 2.47.0 (20210316.0004)
 -->
<!-- Title: dependencies Pages: 1 -->
<svg width="1787pt" height="211pt"
 viewBox="0.00 0.00 1787.00 211.00" xmlns="http://www.w3.org/2000/svg" xmlns:xlink="http://www.w3.org/1999/xlink">
<g id="graph0" class="graph" transform="scale(1 1) rotate(0) translate(4 207)">
<title>dependencies</title>
<polygon fill="white" stroke="transparent" points="-4,4 -4,-207 1783,-207 1783,4 -4,4"/>
<text text-anchor="start" x="868.51" y="-42.4" font-family="Times-12" font-weight="bold" font-size="14.00">Legend</text>
<polygon fill="#ffffb3" stroke="transparent" points="655.5,-10 655.5,-30 675.5,-30 675.5,-10 655.5,-10"/>
<text text-anchor="start" x="679.13" y="-15.4" font-family="Times-12" font-size="14.00"> &#160;Declarations</text>
<polygon fill="#8dd3c7" stroke="transparent" points="768.5,-10 768.5,-30 788.5,-30 788.5,-10 768.5,-10"/>
<text text-anchor="start" x="792.23" y="-15.4" font-family="Times-12" font-size="14.00"> &#160;Module</text>
<polygon fill="#80b1d3" stroke="transparent" points="854.5,-10 854.5,-30 874.5,-30 874.5,-10 854.5,-10"/>
<text text-anchor="start" x="878.28" y="-15.4" font-family="Times-12" font-size="14.00"> &#160;Bootstrap</text>
<polygon fill="#fdb462" stroke="transparent" points="951.5,-10 951.5,-30 971.5,-30 971.5,-10 951.5,-10"/>
<text text-anchor="start" x="975.17" y="-15.4" font-family="Times-12" font-size="14.00"> &#160;Providers</text>
<polygon fill="#fb8072" stroke="transparent" points="1047.5,-10 1047.5,-30 1067.5,-30 1067.5,-10 1047.5,-10"/>
<text text-anchor="start" x="1071.23" y="-15.4" font-family="Times-12" font-size="14.00"> &#160;Exports</text>
<g id="clust1" class="cluster">
<title>cluster_AppModule</title>
<polygon fill="none" stroke="black" stroke-dasharray="1,5" points="8,-70 8,-195 1771,-195 1771,-70 8,-70"/>
</g>
<g id="clust6" class="cluster">
<title>cluster_AppModule_providers</title>
<polygon fill="none" stroke="black" points="1060,-78 1060,-130 1763,-130 1763,-78 1060,-78"/>
</g>
<g id="clust3" class="cluster">
<title>cluster_AppModule_imports</title>
<polygon fill="none" stroke="black" points="16,-78 16,-130 1052,-130 1052,-78 16,-78"/>
</g>
<!-- AlertModule -->
<g id="node1" class="node">
<title>AlertModule</title>
<polygon fill="#8dd3c7" stroke="black" points="1044.31,-122 1041.31,-126 1020.31,-126 1017.31,-122 955.69,-122 955.69,-86 1044.31,-86 1044.31,-122"/>
<text text-anchor="middle" x="1000" y="-99.8" font-family="Times,serif" font-size="14.00">AlertModule</text>
</g>
<!-- AppModule -->
<g id="node10" class="node">
<title>AppModule</title>
<polygon fill="#8dd3c7" stroke="black" points="766.66,-187 763.66,-191 742.66,-191 739.66,-187 683.34,-187 683.34,-151 766.66,-151 766.66,-187"/>
<text text-anchor="middle" x="725" y="-164.8" font-family="Times,serif" font-size="14.00">AppModule</text>
</g>
<!-- AlertModule&#45;&gt;AppModule -->
<g id="edge1" class="edge">
<title>AlertModule&#45;&gt;AppModule</title>
<path fill="none" stroke="black" d="M1000,-122.03C1000,-139.06 1000,-162 1000,-162 1000,-162 776.77,-162 776.77,-162"/>
<polygon fill="black" stroke="black" points="776.77,-158.5 766.77,-162 776.77,-165.5 776.77,-158.5"/>
</g>
<!-- ArticleModule -->
<g id="node2" class="node">
<title>ArticleModule</title>
<polygon fill="#8dd3c7" stroke="black" points="938.42,-122 935.42,-126 914.42,-126 911.42,-122 839.58,-122 839.58,-86 938.42,-86 938.42,-122"/>
<text text-anchor="middle" x="889" y="-99.8" font-family="Times,serif" font-size="14.00">ArticleModule</text>
</g>
<!-- ArticleModule&#45;&gt;AppModule -->
<g id="edge2" class="edge">
<title>ArticleModule&#45;&gt;AppModule</title>
<path fill="none" stroke="black" d="M889,-122.24C889,-137.57 889,-157 889,-157 889,-157 776.81,-157 776.81,-157"/>
<polygon fill="black" stroke="black" points="776.81,-153.5 766.81,-157 776.81,-160.5 776.81,-153.5"/>
</g>
<!-- AuthModule -->
<g id="node3" class="node">
<title>AuthModule</title>
<polygon fill="#8dd3c7" stroke="black" points="821.55,-122 818.55,-126 797.55,-126 794.55,-122 734.45,-122 734.45,-86 821.55,-86 821.55,-122"/>
<text text-anchor="middle" x="778" y="-99.8" font-family="Times,serif" font-size="14.00">AuthModule</text>
</g>
<!-- AuthModule&#45;&gt;AppModule -->
<g id="edge3" class="edge">
<title>AuthModule&#45;&gt;AppModule</title>
<path fill="none" stroke="black" d="M750.53,-122.11C750.53,-122.11 750.53,-140.99 750.53,-140.99"/>
<polygon fill="black" stroke="black" points="747.03,-140.99 750.53,-150.99 754.03,-140.99 747.03,-140.99"/>
</g>
<!-- ChatModule -->
<g id="node4" class="node">
<title>ChatModule</title>
<polygon fill="#8dd3c7" stroke="black" points="715.99,-122 712.99,-126 691.99,-126 688.99,-122 630.01,-122 630.01,-86 715.99,-86 715.99,-122"/>
<text text-anchor="middle" x="673" y="-99.8" font-family="Times,serif" font-size="14.00">ChatModule</text>
</g>
<!-- ChatModule&#45;&gt;AppModule -->
<g id="edge4" class="edge">
<title>ChatModule&#45;&gt;AppModule</title>
<path fill="none" stroke="black" d="M694.11,-122.11C694.11,-122.11 694.11,-140.99 694.11,-140.99"/>
<polygon fill="black" stroke="black" points="690.61,-140.99 694.11,-150.99 697.61,-140.99 690.61,-140.99"/>
</g>
<!-- ChatModule&#45;&gt;AppModule -->
<g id="edge5" class="edge">
<title>ChatModule&#45;&gt;AppModule</title>
<path fill="none" stroke="black" d="M705.05,-122.11C705.05,-122.11 705.05,-140.99 705.05,-140.99"/>
<polygon fill="black" stroke="black" points="701.55,-140.99 705.05,-150.99 708.55,-140.99 701.55,-140.99"/>
</g>
<!-- ImagesModule -->
<g id="node5" class="node">
<title>ImagesModule</title>
<polygon fill="#8dd3c7" stroke="black" points="611.97,-122 608.97,-126 587.97,-126 584.97,-122 512.03,-122 512.03,-86 611.97,-86 611.97,-122"/>
<text text-anchor="middle" x="562" y="-99.8" font-family="Times,serif" font-size="14.00">ImagesModule</text>
</g>
<!-- ImagesModule&#45;&gt;AppModule -->
<g id="edge6" class="edge">
<title>ImagesModule&#45;&gt;AppModule</title>
<path fill="none" stroke="black" d="M562,-122.24C562,-137.57 562,-157 562,-157 562,-157 673.02,-157 673.02,-157"/>
<polygon fill="black" stroke="black" points="673.02,-160.5 683.02,-157 673.02,-153.5 673.02,-160.5"/>
</g>
<!-- MailModule -->
<g id="node6" class="node">
<title>MailModule</title>
<polygon fill="#8dd3c7" stroke="black" points="493.99,-122 490.99,-126 469.99,-126 466.99,-122 408.01,-122 408.01,-86 493.99,-86 493.99,-122"/>
<text text-anchor="middle" x="451" y="-99.8" font-family="Times,serif" font-size="14.00">MailModule</text>
</g>
<!-- MailModule&#45;&gt;AppModule -->
<g id="edge7" class="edge">
<title>MailModule&#45;&gt;AppModule</title>
<path fill="none" stroke="black" d="M451,-122.02C451,-139.37 451,-163 451,-163 451,-163 673.09,-163 673.09,-163"/>
<polygon fill="black" stroke="black" points="673.09,-166.5 683.09,-163 673.09,-159.5 673.09,-166.5"/>
</g>
<!-- MessagesModule -->
<g id="node7" class="node">
<title>MessagesModule</title>
<polygon fill="#8dd3c7" stroke="black" points="389.97,-122 386.97,-126 365.97,-126 362.97,-122 276.03,-122 276.03,-86 389.97,-86 389.97,-122"/>
<text text-anchor="middle" x="333" y="-99.8" font-family="Times,serif" font-size="14.00">MessagesModule</text>
</g>
<!-- MessagesModule&#45;&gt;AppModule -->
<g id="edge8" class="edge">
<title>MessagesModule&#45;&gt;AppModule</title>
<path fill="none" stroke="black" d="M333,-122.11C333,-141.34 333,-169 333,-169 333,-169 673.05,-169 673.05,-169"/>
<polygon fill="black" stroke="black" points="673.05,-172.5 683.05,-169 673.05,-165.5 673.05,-172.5"/>
</g>
<!-- PagesModule -->
<g id="node8" class="node">
<title>PagesModule</title>
<polygon fill="#8dd3c7" stroke="black" points="258.21,-122 255.21,-126 234.21,-126 231.21,-122 165.79,-122 165.79,-86 258.21,-86 258.21,-122"/>
<text text-anchor="middle" x="212" y="-99.8" font-family="Times,serif" font-size="14.00">PagesModule</text>
</g>
<!-- PagesModule&#45;&gt;AppModule -->
<g id="edge9" class="edge">
<title>PagesModule&#45;&gt;AppModule</title>
<path fill="none" stroke="black" d="M212,-122.28C212,-143.32 212,-175 212,-175 212,-175 673.02,-175 673.02,-175"/>
<polygon fill="black" stroke="black" points="673.02,-178.5 683.02,-175 673.02,-171.5 673.02,-178.5"/>
</g>
<!-- UtilisateursModule -->
<g id="node9" class="node">
<title>UtilisateursModule</title>
<polygon fill="#8dd3c7" stroke="black" points="148.09,-122 145.09,-126 124.09,-126 121.09,-122 23.91,-122 23.91,-86 148.09,-86 148.09,-122"/>
<text text-anchor="middle" x="86" y="-99.8" font-family="Times,serif" font-size="14.00">UtilisateursModule</text>
</g>
<!-- UtilisateursModule&#45;&gt;AppModule -->
<g id="edge10" class="edge">
<title>UtilisateursModule&#45;&gt;AppModule</title>
<path fill="none" stroke="black" d="M86,-122.09C86,-145.13 86,-182 86,-182 86,-182 673.07,-182 673.07,-182"/>
<polygon fill="black" stroke="black" points="673.07,-185.5 683.07,-182 673.07,-178.5 673.07,-185.5"/>
</g>
<!-- AppService -->
<g id="node11" class="node">
<title>AppService</title>
<ellipse fill="#fdb462" stroke="black" cx="1698" cy="-104" rx="56.74" ry="18"/>
<text text-anchor="middle" x="1698" y="-99.8" font-family="Times,serif" font-size="14.00">AppService</text>
</g>
<!-- AppService&#45;&gt;AppModule -->
<g id="edge11" class="edge">
<title>AppService&#45;&gt;AppModule</title>
<path fill="none" stroke="black" d="M1698,-122.09C1698,-145.13 1698,-182 1698,-182 1698,-182 776.81,-182 776.81,-182"/>
<polygon fill="black" stroke="black" points="776.81,-178.5 766.81,-182 776.81,-185.5 776.81,-178.5"/>
</g>
<!-- MessagesService -->
<g id="node12" class="node">
<title>MessagesService</title>
<ellipse fill="#fdb462" stroke="black" cx="1546" cy="-104" rx="77.56" ry="18"/>
<text text-anchor="middle" x="1546" y="-99.8" font-family="Times,serif" font-size="14.00">MessagesService</text>
</g>
<!-- MessagesService&#45;&gt;AppModule -->
<g id="edge12" class="edge">
<title>MessagesService&#45;&gt;AppModule</title>
<path fill="none" stroke="black" d="M1546,-122.04C1546,-143.66 1546,-177 1546,-177 1546,-177 776.84,-177 776.84,-177"/>
<polygon fill="black" stroke="black" points="776.84,-173.5 766.84,-177 776.84,-180.5 776.84,-173.5"/>
</g>
<!-- PrismaService -->
<g id="node13" class="node">
<title>PrismaService</title>
<ellipse fill="#fdb462" stroke="black" cx="1384" cy="-104" rx="66.63" ry="18"/>
<text text-anchor="middle" x="1384" y="-99.8" font-family="Times,serif" font-size="14.00">PrismaService</text>
</g>
<!-- PrismaService&#45;&gt;AppModule -->
<g id="edge13" class="edge">
<title>PrismaService&#45;&gt;AppModule</title>
<path fill="none" stroke="black" d="M1384,-122.22C1384,-142.37 1384,-172 1384,-172 1384,-172 776.72,-172 776.72,-172"/>
<polygon fill="black" stroke="black" points="776.72,-168.5 766.72,-172 776.72,-175.5 776.72,-168.5"/>
</g>
<!-- VisitorCounterMiddleware -->
<g id="node14" class="node">
<title>VisitorCounterMiddleware</title>
<ellipse fill="#fdb462" stroke="black" cx="1184" cy="-104" rx="115.75" ry="18"/>
<text text-anchor="middle" x="1184" y="-99.8" font-family="Times,serif" font-size="14.00">VisitorCounterMiddleware</text>
</g>
<!-- VisitorCounterMiddleware&#45;&gt;AppModule -->
<g id="edge14" class="edge">
<title>VisitorCounterMiddleware&#45;&gt;AppModule</title>
<path fill="none" stroke="black" d="M1184,-122.22C1184,-140.83 1184,-167 1184,-167 1184,-167 776.95,-167 776.95,-167"/>
<polygon fill="black" stroke="black" points="776.95,-163.5 766.95,-167 776.95,-170.5 776.95,-163.5"/>
</g>
</g>
</svg>
