<?xml version="1.0" encoding="UTF-8" standalone="no"?>
<!DOCTYPE svg PUBLIC "-//W3C//DTD SVG 1.1//EN"
 "http://www.w3.org/Graphics/SVG/1.1/DTD/svg11.dtd">
<!-- Generated by graphviz version 2.47.0 (20210316.0004)
 -->
<!-- Title: dependencies Pages: 1 -->
<svg width="3184pt" height="363pt"
 viewBox="0.00 0.00 3184.00 363.00" xmlns="http://www.w3.org/2000/svg" xmlns:xlink="http://www.w3.org/1999/xlink">
<g id="graph0" class="graph" transform="scale(1 1) rotate(0) translate(4 359)">
<title>dependencies</title>
<polygon fill="white" stroke="transparent" points="-4,4 -4,-359 3180,-359 3180,4 -4,4"/>
<text text-anchor="start" x="1567.01" y="-42.4" font-family="Times-12" font-weight="bold" font-size="14.00">Legend</text>
<polygon fill="#ffffb3" stroke="transparent" points="1354,-10 1354,-30 1374,-30 1374,-10 1354,-10"/>
<text text-anchor="start" x="1377.63" y="-15.4" font-family="Times-12" font-size="14.00"> &#160;Declarations</text>
<polygon fill="#8dd3c7" stroke="transparent" points="1467,-10 1467,-30 1487,-30 1487,-10 1467,-10"/>
<text text-anchor="start" x="1490.73" y="-15.4" font-family="Times-12" font-size="14.00"> &#160;Module</text>
<polygon fill="#80b1d3" stroke="transparent" points="1553,-10 1553,-30 1573,-30 1573,-10 1553,-10"/>
<text text-anchor="start" x="1576.78" y="-15.4" font-family="Times-12" font-size="14.00"> &#160;Bootstrap</text>
<polygon fill="#fdb462" stroke="transparent" points="1650,-10 1650,-30 1670,-30 1670,-10 1650,-10"/>
<text text-anchor="start" x="1673.67" y="-15.4" font-family="Times-12" font-size="14.00"> &#160;Providers</text>
<polygon fill="#fb8072" stroke="transparent" points="1746,-10 1746,-30 1766,-30 1766,-10 1746,-10"/>
<text text-anchor="start" x="1769.73" y="-15.4" font-family="Times-12" font-size="14.00"> &#160;Exports</text>
<g id="clust1" class="cluster">
<title>cluster_AlertModule</title>
<polygon fill="none" stroke="black" stroke-dasharray="1,5" points="2550,-70 2550,-206 2854,-206 2854,-70 2550,-70"/>
</g>
<g id="clust6" class="cluster">
<title>cluster_AlertModule_providers</title>
<polygon fill="none" stroke="black" points="2558,-78 2558,-130 2846,-130 2846,-78 2558,-78"/>
</g>
<g id="clust7" class="cluster">
<title>cluster_AppModule</title>
<polygon fill="none" stroke="black" stroke-dasharray="1,5" points="442,-146 442,-347 1565,-347 1565,-146 442,-146"/>
</g>
<g id="clust9" class="cluster">
<title>cluster_AppModule_imports</title>
<polygon fill="none" stroke="black" points="837,-154 837,-282 1557,-282 1557,-154 837,-154"/>
</g>
<g id="clust12" class="cluster">
<title>cluster_AppModule_providers</title>
<polygon fill="none" stroke="black" points="450,-154 450,-206 829,-206 829,-154 450,-154"/>
</g>
<g id="clust13" class="cluster">
<title>cluster_ArticleModule</title>
<polygon fill="none" stroke="black" stroke-dasharray="1,5" points="796,-70 796,-138 962,-138 962,-70 796,-70"/>
</g>
<g id="clust18" class="cluster">
<title>cluster_ArticleModule_providers</title>
<polygon fill="none" stroke="black" points="804,-78 804,-130 954,-130 954,-78 804,-78"/>
</g>
<g id="clust19" class="cluster">
<title>cluster_AuthModule</title>
<polygon fill="none" stroke="black" stroke-dasharray="1,5" points="1595,-146 1595,-214 2542,-214 2542,-146 1595,-146"/>
</g>
<g id="clust22" class="cluster">
<title>cluster_AuthModule_exports</title>
<polygon fill="none" stroke="black" points="2428,-154 2428,-206 2534,-206 2534,-154 2428,-154"/>
</g>
<g id="clust24" class="cluster">
<title>cluster_AuthModule_providers</title>
<polygon fill="none" stroke="black" points="1603,-154 1603,-206 2420,-206 2420,-154 1603,-154"/>
</g>
<g id="clust25" class="cluster">
<title>cluster_ImagesModule</title>
<polygon fill="none" stroke="black" stroke-dasharray="1,5" points="970,-70 970,-138 1138,-138 1138,-70 970,-70"/>
</g>
<g id="clust30" class="cluster">
<title>cluster_ImagesModule_providers</title>
<polygon fill="none" stroke="black" points="978,-78 978,-130 1130,-130 1130,-78 978,-78"/>
</g>
<g id="clust31" class="cluster">
<title>cluster_MailModule</title>
<polygon fill="none" stroke="black" stroke-dasharray="1,5" points="8,-222 8,-290 268,-290 268,-222 8,-222"/>
</g>
<g id="clust34" class="cluster">
<title>cluster_MailModule_exports</title>
<polygon fill="none" stroke="black" points="156,-230 156,-282 260,-282 260,-230 156,-230"/>
</g>
<g id="clust36" class="cluster">
<title>cluster_MailModule_providers</title>
<polygon fill="none" stroke="black" points="16,-230 16,-282 148,-282 148,-230 16,-230"/>
</g>
<g id="clust37" class="cluster">
<title>cluster_MessagesModule</title>
<polygon fill="none" stroke="black" stroke-dasharray="1,5" points="1146,-70 1146,-138 1334,-138 1334,-70 1146,-70"/>
</g>
<g id="clust42" class="cluster">
<title>cluster_MessagesModule_providers</title>
<polygon fill="none" stroke="black" points="1154,-78 1154,-130 1326,-130 1326,-78 1154,-78"/>
</g>
<g id="clust43" class="cluster">
<title>cluster_PagesModule</title>
<polygon fill="none" stroke="black" stroke-dasharray="1,5" points="1342,-70 1342,-138 1500,-138 1500,-70 1342,-70"/>
</g>
<g id="clust48" class="cluster">
<title>cluster_PagesModule_providers</title>
<polygon fill="none" stroke="black" points="1350,-78 1350,-130 1492,-130 1492,-78 1350,-78"/>
</g>
<g id="clust49" class="cluster">
<title>cluster_PrismaModule</title>
<polygon fill="none" stroke="black" stroke-dasharray="1,5" points="2862,-154 2862,-290 2994,-290 2994,-154 2862,-154"/>
</g>
<g id="clust52" class="cluster">
<title>cluster_PrismaModule_exports</title>
<polygon fill="none" stroke="black" points="2870,-230 2870,-282 2986,-282 2986,-230 2870,-230"/>
</g>
<g id="clust55" class="cluster">
<title>cluster_UtilisateursModule</title>
<polygon fill="none" stroke="black" stroke-dasharray="1,5" points="276,-222 276,-290 434,-290 434,-222 276,-222"/>
</g>
<g id="clust58" class="cluster">
<title>cluster_UtilisateursModule_exports</title>
<polygon fill="none" stroke="black" points="284,-230 284,-282 426,-282 426,-230 284,-230"/>
</g>
<g id="clust61" class="cluster">
<title>cluster_VisitorModule</title>
<polygon fill="none" stroke="black" stroke-dasharray="1,5" points="3002,-70 3002,-206 3168,-206 3168,-70 3002,-70"/>
</g>
<g id="clust66" class="cluster">
<title>cluster_VisitorModule_providers</title>
<polygon fill="none" stroke="black" points="3010,-78 3010,-130 3160,-130 3160,-78 3010,-78"/>
</g>
<!-- AlertService -->
<g id="node1" class="node">
<title>AlertService</title>
<ellipse fill="#fdb462" stroke="black" cx="2778" cy="-104" rx="59.66" ry="18"/>
<text text-anchor="middle" x="2778" y="-99.8" font-family="Times,serif" font-size="14.00">AlertService</text>
</g>
<!-- AlertModule -->
<g id="node3" class="node">
<title>AlertModule</title>
<polygon fill="#8dd3c7" stroke="black" points="2677.31,-198 2674.31,-202 2653.31,-202 2650.31,-198 2588.69,-198 2588.69,-162 2677.31,-162 2677.31,-198"/>
<text text-anchor="middle" x="2633" y="-175.8" font-family="Times,serif" font-size="14.00">AlertModule</text>
</g>
<!-- AlertService&#45;&gt;AlertModule -->
<g id="edge1" class="edge">
<title>AlertService&#45;&gt;AlertModule</title>
<path fill="none" stroke="black" d="M2778,-122.03C2778,-142.77 2778,-174 2778,-174 2778,-174 2687.29,-174 2687.29,-174"/>
<polygon fill="black" stroke="black" points="2687.29,-170.5 2677.29,-174 2687.29,-177.5 2687.29,-170.5"/>
</g>
<!-- PrismaService -->
<g id="node2" class="node">
<title>PrismaService</title>
<ellipse fill="#fdb462" stroke="black" cx="2633" cy="-104" rx="66.63" ry="18"/>
<text text-anchor="middle" x="2633" y="-99.8" font-family="Times,serif" font-size="14.00">PrismaService</text>
</g>
<!-- PrismaService&#45;&gt;AlertModule -->
<g id="edge2" class="edge">
<title>PrismaService&#45;&gt;AlertModule</title>
<path fill="none" stroke="black" d="M2633,-122.01C2633,-122.01 2633,-151.85 2633,-151.85"/>
<polygon fill="black" stroke="black" points="2629.5,-151.85 2633,-161.85 2636.5,-151.85 2629.5,-151.85"/>
</g>
<!-- ArticleModule -->
<g id="node4" class="node">
<title>ArticleModule</title>
<polygon fill="#8dd3c7" stroke="black" points="1165.42,-198 1162.42,-202 1141.42,-202 1138.42,-198 1066.58,-198 1066.58,-162 1165.42,-162 1165.42,-198"/>
<text text-anchor="middle" x="1116" y="-175.8" font-family="Times,serif" font-size="14.00">ArticleModule</text>
</g>
<!-- PrismaService&#45;&gt;ArticleModule -->
<g id="edge15" class="edge">
<title>PrismaService&#45;&gt;ArticleModule</title>
<path fill="none" stroke="black" d="M2572.66,-111.95C2572.66,-120.23 2572.66,-132 2572.66,-132 2572.66,-132 1142.17,-132 1142.17,-132 1142.17,-132 1142.17,-151.85 1142.17,-151.85"/>
<polygon fill="black" stroke="black" points="1138.67,-151.85 1142.17,-161.85 1145.67,-151.85 1138.67,-151.85"/>
</g>
<!-- AuthModule -->
<g id="node5" class="node">
<title>AuthModule</title>
<polygon fill="#8dd3c7" stroke="black" points="1548.55,-274 1545.55,-278 1524.55,-278 1521.55,-274 1461.45,-274 1461.45,-238 1548.55,-238 1548.55,-274"/>
<text text-anchor="middle" x="1505" y="-251.8" font-family="Times,serif" font-size="14.00">AuthModule</text>
</g>
<!-- PrismaService&#45;&gt;AuthModule -->
<g id="edge22" class="edge">
<title>PrismaService&#45;&gt;AuthModule</title>
<path fill="none" stroke="black" d="M2582.37,-115.94C2582.37,-154 2582.37,-270 2582.37,-270 2582.37,-270 1558.57,-270 1558.57,-270"/>
<polygon fill="black" stroke="black" points="1558.57,-266.5 1548.57,-270 1558.57,-273.5 1558.57,-266.5"/>
</g>
<!-- ImagesModule -->
<g id="node6" class="node">
<title>ImagesModule</title>
<polygon fill="#8dd3c7" stroke="black" points="1048.97,-198 1045.97,-202 1024.97,-202 1021.97,-198 949.03,-198 949.03,-162 1048.97,-162 1048.97,-198"/>
<text text-anchor="middle" x="999" y="-175.8" font-family="Times,serif" font-size="14.00">ImagesModule</text>
</g>
<!-- PrismaService&#45;&gt;ImagesModule -->
<g id="edge27" class="edge">
<title>PrismaService&#45;&gt;ImagesModule</title>
<path fill="none" stroke="black" d="M2569.42,-109.8C2569.42,-116.62 2569.42,-127 2569.42,-127 2569.42,-127 1028.03,-127 1028.03,-127 1028.03,-127 1028.03,-151.76 1028.03,-151.76"/>
<polygon fill="black" stroke="black" points="1024.53,-151.76 1028.03,-161.76 1031.53,-151.76 1024.53,-151.76"/>
</g>
<!-- MessagesModule -->
<g id="node8" class="node">
<title>MessagesModule</title>
<polygon fill="#8dd3c7" stroke="black" points="1296.97,-198 1293.97,-202 1272.97,-202 1269.97,-198 1183.03,-198 1183.03,-162 1296.97,-162 1296.97,-198"/>
<text text-anchor="middle" x="1240" y="-175.8" font-family="Times,serif" font-size="14.00">MessagesModule</text>
</g>
<!-- PrismaService&#45;&gt;MessagesModule -->
<g id="edge31" class="edge">
<title>PrismaService&#45;&gt;MessagesModule</title>
<path fill="none" stroke="black" d="M2575.9,-113.37C2575.9,-123.12 2575.9,-137 2575.9,-137 2575.9,-137 1259,-137 1259,-137 1259,-137 1259,-151.51 1259,-151.51"/>
<polygon fill="black" stroke="black" points="1255.5,-151.51 1259,-161.51 1262.5,-151.51 1255.5,-151.51"/>
</g>
<!-- PagesModule -->
<g id="node9" class="node">
<title>PagesModule</title>
<polygon fill="#8dd3c7" stroke="black" points="1407.21,-198 1404.21,-202 1383.21,-202 1380.21,-198 1314.79,-198 1314.79,-162 1407.21,-162 1407.21,-198"/>
<text text-anchor="middle" x="1361" y="-175.8" font-family="Times,serif" font-size="14.00">PagesModule</text>
</g>
<!-- PrismaService&#45;&gt;PagesModule -->
<g id="edge33" class="edge">
<title>PrismaService&#45;&gt;PagesModule</title>
<path fill="none" stroke="black" d="M2579.13,-114.79C2579.13,-126.02 2579.13,-142 2579.13,-142 2579.13,-142 1390.9,-142 1390.9,-142 1390.9,-142 1390.9,-151.89 1390.9,-151.89"/>
<polygon fill="black" stroke="black" points="1387.4,-151.89 1390.9,-161.89 1394.4,-151.89 1387.4,-151.89"/>
</g>
<!-- UtilisateursModule -->
<g id="node10" class="node">
<title>UtilisateursModule</title>
<polygon fill="#8dd3c7" stroke="black" points="1549.09,-198 1546.09,-202 1525.09,-202 1522.09,-198 1424.91,-198 1424.91,-162 1549.09,-162 1549.09,-198"/>
<text text-anchor="middle" x="1487" y="-175.8" font-family="Times,serif" font-size="14.00">UtilisateursModule</text>
</g>
<!-- PrismaService&#45;&gt;UtilisateursModule -->
<g id="edge37" class="edge">
<title>PrismaService&#45;&gt;UtilisateursModule</title>
<path fill="none" stroke="black" d="M2565.84,-104C2323.08,-104 1505.36,-104 1505.36,-104 1505.36,-104 1505.36,-151.99 1505.36,-151.99"/>
<polygon fill="black" stroke="black" points="1501.86,-151.99 1505.36,-161.99 1508.86,-151.99 1501.86,-151.99"/>
</g>
<!-- AppModule -->
<g id="node11" class="node">
<title>AppModule</title>
<polygon fill="#8dd3c7" stroke="black" points="1281.66,-339 1278.66,-343 1257.66,-343 1254.66,-339 1198.34,-339 1198.34,-303 1281.66,-303 1281.66,-339"/>
<text text-anchor="middle" x="1240" y="-316.8" font-family="Times,serif" font-size="14.00">AppModule</text>
</g>
<!-- PrismaService&#45;&gt;AppModule -->
<g id="edge12" class="edge">
<title>PrismaService&#45;&gt;AppModule</title>
<path fill="none" stroke="black" d="M2585.61,-116.84C2585.61,-164 2585.61,-325 2585.61,-325 2585.61,-325 1291.75,-325 1291.75,-325"/>
<polygon fill="black" stroke="black" points="1291.75,-321.5 1281.75,-325 1291.75,-328.5 1291.75,-321.5"/>
</g>
<!-- PrismaModule -->
<g id="node27" class="node">
<title>PrismaModule</title>
<polygon fill="#8dd3c7" stroke="black" points="2972.43,-198 2969.43,-202 2948.43,-202 2945.43,-198 2873.57,-198 2873.57,-162 2972.43,-162 2972.43,-198"/>
<text text-anchor="middle" x="2923" y="-175.8" font-family="Times,serif" font-size="14.00">PrismaModule</text>
</g>
<!-- PrismaService&#45;&gt;PrismaModule -->
<g id="edge35" class="edge">
<title>PrismaService&#45;&gt;PrismaModule</title>
<path fill="none" stroke="black" d="M2692.26,-112.47C2692.26,-133.42 2692.26,-186 2692.26,-186 2692.26,-186 2863.5,-186 2863.5,-186"/>
<polygon fill="black" stroke="black" points="2863.5,-189.5 2873.5,-186 2863.5,-182.5 2863.5,-189.5"/>
</g>
<!-- VisitorModule -->
<g id="node30" class="node">
<title>VisitorModule</title>
<polygon fill="#8dd3c7" stroke="black" points="3121.43,-198 3118.43,-202 3097.43,-202 3094.43,-198 3022.57,-198 3022.57,-162 3121.43,-162 3121.43,-198"/>
<text text-anchor="middle" x="3072" y="-175.8" font-family="Times,serif" font-size="14.00">VisitorModule</text>
</g>
<!-- PrismaService&#45;&gt;VisitorModule -->
<g id="edge39" class="edge">
<title>PrismaService&#45;&gt;VisitorModule</title>
<path fill="none" stroke="black" d="M2684.71,-115.62C2684.71,-129.83 2684.71,-152 2684.71,-152 2684.71,-152 3055.59,-152 3055.59,-152 3055.59,-152 3055.59,-152.98 3055.59,-152.98"/>
<polygon fill="black" stroke="black" points="3052.09,-151.79 3055.59,-161.79 3059.09,-151.79 3052.09,-151.79"/>
</g>
<!-- AlertModule&#45;&gt;AppModule -->
<g id="edge3" class="edge">
<title>AlertModule&#45;&gt;AppModule</title>
<path fill="none" stroke="black" d="M2633,-198.03C2633,-238.3 2633,-332 2633,-332 2633,-332 1291.69,-332 1291.69,-332"/>
<polygon fill="black" stroke="black" points="1291.69,-328.5 1281.69,-332 1291.69,-335.5 1291.69,-328.5"/>
</g>
<!-- ArticleModule&#45;&gt;AppModule -->
<g id="edge4" class="edge">
<title>ArticleModule&#45;&gt;AppModule</title>
<path fill="none" stroke="black" d="M1116,-198.21C1116,-233.77 1116,-309 1116,-309 1116,-309 1188.02,-309 1188.02,-309"/>
<polygon fill="black" stroke="black" points="1188.02,-312.5 1198.02,-309 1188.02,-305.5 1188.02,-312.5"/>
</g>
<!-- AuthModule&#45;&gt;AppModule -->
<g id="edge5" class="edge">
<title>AuthModule&#45;&gt;AppModule</title>
<path fill="none" stroke="black" d="M1461.27,-265C1389.34,-265 1253.94,-265 1253.94,-265 1253.94,-265 1253.94,-292.97 1253.94,-292.97"/>
<polygon fill="black" stroke="black" points="1250.44,-292.97 1253.94,-302.97 1257.44,-292.97 1250.44,-292.97"/>
</g>
<!-- AuthService  -->
<g id="node15" class="node">
<title>AuthService </title>
<polygon fill="#fb8072" stroke="black" points="2525.98,-198 2436.02,-198 2436.02,-162 2525.98,-162 2525.98,-198"/>
<text text-anchor="middle" x="2481" y="-175.8" font-family="Times,serif" font-size="14.00">AuthService </text>
</g>
<!-- AuthModule&#45;&gt;AuthService  -->
<g id="edge17" class="edge">
<title>AuthModule&#45;&gt;AuthService </title>
<path fill="none" stroke="black" stroke-dasharray="5,2" d="M1548.83,-265C1738.75,-265 2481,-265 2481,-265 2481,-265 2481,-208.03 2481,-208.03"/>
<polygon fill="black" stroke="black" points="2484.5,-208.03 2481,-198.03 2477.5,-208.03 2484.5,-208.03"/>
</g>
<!-- ImagesModule&#45;&gt;AppModule -->
<g id="edge6" class="edge">
<title>ImagesModule&#45;&gt;AppModule</title>
<path fill="none" stroke="black" d="M999,-198.21C999,-235.06 999,-315 999,-315 999,-315 1188.3,-315 1188.3,-315"/>
<polygon fill="black" stroke="black" points="1188.3,-318.5 1198.3,-315 1188.3,-311.5 1188.3,-318.5"/>
</g>
<!-- MailModule -->
<g id="node7" class="node">
<title>MailModule</title>
<polygon fill="#8dd3c7" stroke="black" points="930.99,-198 927.99,-202 906.99,-202 903.99,-198 845.01,-198 845.01,-162 930.99,-162 930.99,-198"/>
<text text-anchor="middle" x="888" y="-175.8" font-family="Times,serif" font-size="14.00">MailModule</text>
</g>
<!-- MailModule&#45;&gt;AppModule -->
<g id="edge7" class="edge">
<title>MailModule&#45;&gt;AppModule</title>
<path fill="none" stroke="black" d="M909.5,-198.14C909.5,-236.23 909.5,-321 909.5,-321 909.5,-321 1188.14,-321 1188.14,-321"/>
<polygon fill="black" stroke="black" points="1188.14,-324.5 1198.14,-321 1188.14,-317.5 1188.14,-324.5"/>
</g>
<!-- MailService  -->
<g id="node22" class="node">
<title>MailService </title>
<polygon fill="#fb8072" stroke="black" points="251.92,-274 164.08,-274 164.08,-238 251.92,-238 251.92,-274"/>
<text text-anchor="middle" x="208" y="-251.8" font-family="Times,serif" font-size="14.00">MailService </text>
</g>
<!-- MailModule&#45;&gt;MailService  -->
<g id="edge28" class="edge">
<title>MailModule&#45;&gt;MailService </title>
<path fill="none" stroke="black" stroke-dasharray="5,2" d="M888,-198.04C888,-210.56 888,-225 888,-225 888,-225 208,-225 208,-225 208,-225 208,-227.97 208,-227.97"/>
<polygon fill="black" stroke="black" points="204.5,-227.97 208,-237.97 211.5,-227.97 204.5,-227.97"/>
</g>
<!-- MessagesModule&#45;&gt;AppModule -->
<g id="edge8" class="edge">
<title>MessagesModule&#45;&gt;AppModule</title>
<path fill="none" stroke="black" d="M1226.06,-198.14C1226.06,-198.14 1226.06,-292.93 1226.06,-292.93"/>
<polygon fill="black" stroke="black" points="1222.56,-292.92 1226.06,-302.93 1229.56,-292.93 1222.56,-292.92"/>
</g>
<!-- PagesModule&#45;&gt;AppModule -->
<g id="edge9" class="edge">
<title>PagesModule&#45;&gt;AppModule</title>
<path fill="none" stroke="black" d="M1361,-198.21C1361,-234.21 1361,-311 1361,-311 1361,-311 1291.98,-311 1291.98,-311"/>
<polygon fill="black" stroke="black" points="1291.98,-307.5 1281.98,-311 1291.98,-314.5 1291.98,-307.5"/>
</g>
<!-- UtilisateursModule&#45;&gt;AuthModule -->
<g id="edge16" class="edge">
<title>UtilisateursModule&#45;&gt;AuthModule</title>
<path fill="none" stroke="black" d="M1505,-198.01C1505,-198.01 1505,-227.85 1505,-227.85"/>
<polygon fill="black" stroke="black" points="1501.5,-227.85 1505,-237.85 1508.5,-227.85 1501.5,-227.85"/>
</g>
<!-- UtilisateursModule&#45;&gt;AppModule -->
<g id="edge10" class="edge">
<title>UtilisateursModule&#45;&gt;AppModule</title>
<path fill="none" stroke="black" d="M1449.14,-198.04C1449.14,-235.45 1449.14,-318 1449.14,-318 1449.14,-318 1291.82,-318 1291.82,-318"/>
<polygon fill="black" stroke="black" points="1291.82,-314.5 1281.82,-318 1291.82,-321.5 1291.82,-314.5"/>
</g>
<!-- UtilisateursService  -->
<g id="node28" class="node">
<title>UtilisateursService </title>
<polygon fill="#fb8072" stroke="black" points="418.02,-274 291.98,-274 291.98,-238 418.02,-238 418.02,-274"/>
<text text-anchor="middle" x="355" y="-251.8" font-family="Times,serif" font-size="14.00">UtilisateursService </text>
</g>
<!-- UtilisateursModule&#45;&gt;UtilisateursService  -->
<g id="edge36" class="edge">
<title>UtilisateursModule&#45;&gt;UtilisateursService </title>
<path fill="none" stroke="black" stroke-dasharray="5,2" d="M1437.05,-198.01C1437.05,-220.49 1437.05,-256 1437.05,-256 1437.05,-256 428.25,-256 428.25,-256"/>
<polygon fill="black" stroke="black" points="428.25,-252.5 418.25,-256 428.25,-259.5 428.25,-252.5"/>
</g>
<!-- AppService -->
<g id="node12" class="node">
<title>AppService</title>
<ellipse fill="#fdb462" stroke="black" cx="515" cy="-180" rx="56.74" ry="18"/>
<text text-anchor="middle" x="515" y="-175.8" font-family="Times,serif" font-size="14.00">AppService</text>
</g>
<!-- AppService&#45;&gt;AppModule -->
<g id="edge11" class="edge">
<title>AppService&#45;&gt;AppModule</title>
<path fill="none" stroke="black" d="M515,-198.27C515,-239.06 515,-334 515,-334 515,-334 1188.15,-334 1188.15,-334"/>
<polygon fill="black" stroke="black" points="1188.15,-337.5 1198.15,-334 1188.15,-330.5 1188.15,-337.5"/>
</g>
<!-- VisitorCounterMiddleware -->
<g id="node13" class="node">
<title>VisitorCounterMiddleware</title>
<ellipse fill="#fdb462" stroke="black" cx="705" cy="-180" rx="115.75" ry="18"/>
<text text-anchor="middle" x="705" y="-175.8" font-family="Times,serif" font-size="14.00">VisitorCounterMiddleware</text>
</g>
<!-- VisitorCounterMiddleware&#45;&gt;AuthModule -->
<g id="edge24" class="edge">
<title>VisitorCounterMiddleware&#45;&gt;AuthModule</title>
<path fill="none" stroke="black" d="M743.54,-197.25C743.54,-217.11 743.54,-247 743.54,-247 743.54,-247 1451.33,-247 1451.33,-247"/>
<polygon fill="black" stroke="black" points="1451.33,-250.5 1461.33,-247 1451.33,-243.5 1451.33,-250.5"/>
</g>
<!-- VisitorCounterMiddleware&#45;&gt;AppModule -->
<g id="edge13" class="edge">
<title>VisitorCounterMiddleware&#45;&gt;AppModule</title>
<path fill="none" stroke="black" d="M666.46,-197.15C666.46,-235.93 666.46,-327 666.46,-327 666.46,-327 1188.29,-327 1188.29,-327"/>
<polygon fill="black" stroke="black" points="1188.29,-330.5 1198.29,-327 1188.29,-323.5 1188.29,-330.5"/>
</g>
<!-- ArticleService -->
<g id="node14" class="node">
<title>ArticleService</title>
<ellipse fill="#fdb462" stroke="black" cx="879" cy="-104" rx="66.61" ry="18"/>
<text text-anchor="middle" x="879" y="-99.8" font-family="Times,serif" font-size="14.00">ArticleService</text>
</g>
<!-- ArticleService&#45;&gt;ArticleModule -->
<g id="edge14" class="edge">
<title>ArticleService&#45;&gt;ArticleModule</title>
<path fill="none" stroke="black" d="M935.93,-113.72C935.93,-129.02 935.93,-157 935.93,-157 935.93,-157 1094.33,-157 1094.33,-157 1094.33,-157 1094.33,-157.49 1094.33,-157.49"/>
<polygon fill="black" stroke="black" points="1090.83,-151.88 1094.33,-161.88 1097.83,-151.88 1090.83,-151.88"/>
</g>
<!-- ArticleService&#45;&gt;ImagesModule -->
<g id="edge25" class="edge">
<title>ArticleService&#45;&gt;ImagesModule</title>
<path fill="none" stroke="black" d="M940.87,-111.01C940.87,-129.83 940.87,-180 940.87,-180 940.87,-180 941.67,-180 941.67,-180"/>
<polygon fill="black" stroke="black" points="938.95,-183.5 948.95,-180 938.95,-176.5 938.95,-183.5"/>
</g>
<!-- AuthService -->
<g id="node16" class="node">
<title>AuthService</title>
<ellipse fill="#fdb462" stroke="black" cx="1802" cy="-180" rx="59.11" ry="18"/>
<text text-anchor="middle" x="1802" y="-175.8" font-family="Times,serif" font-size="14.00">AuthService</text>
</g>
<!-- AuthService&#45;&gt;AuthModule -->
<g id="edge18" class="edge">
<title>AuthService&#45;&gt;AuthModule</title>
<path fill="none" stroke="black" d="M1802,-198.31C1802,-218.15 1802,-247 1802,-247 1802,-247 1558.82,-247 1558.82,-247"/>
<polygon fill="black" stroke="black" points="1558.82,-243.5 1548.82,-247 1558.82,-250.5 1558.82,-243.5"/>
</g>
<!-- JwtStrategy -->
<g id="node17" class="node">
<title>JwtStrategy</title>
<ellipse fill="#fdb462" stroke="black" cx="1668" cy="-180" rx="56.76" ry="18"/>
<text text-anchor="middle" x="1668" y="-175.8" font-family="Times,serif" font-size="14.00">JwtStrategy</text>
</g>
<!-- JwtStrategy&#45;&gt;AuthModule -->
<g id="edge19" class="edge">
<title>JwtStrategy&#45;&gt;AuthModule</title>
<path fill="none" stroke="black" d="M1668,-198.22C1668,-216.83 1668,-243 1668,-243 1668,-243 1558.68,-243 1558.68,-243"/>
<polygon fill="black" stroke="black" points="1558.68,-239.5 1548.68,-243 1558.68,-246.5 1558.68,-239.5"/>
</g>
<!-- LocalStrategy -->
<g id="node18" class="node">
<title>LocalStrategy</title>
<ellipse fill="#fdb462" stroke="black" cx="2347" cy="-180" rx="65.41" ry="18"/>
<text text-anchor="middle" x="2347" y="-175.8" font-family="Times,serif" font-size="14.00">LocalStrategy</text>
</g>
<!-- LocalStrategy&#45;&gt;AuthModule -->
<g id="edge20" class="edge">
<title>LocalStrategy&#45;&gt;AuthModule</title>
<path fill="none" stroke="black" d="M2347,-198.38C2347,-222.28 2347,-261 2347,-261 2347,-261 1558.79,-261 1558.79,-261"/>
<polygon fill="black" stroke="black" points="1558.79,-257.5 1548.79,-261 1558.79,-264.5 1558.79,-257.5"/>
</g>
<!-- PasswordResetService -->
<g id="node19" class="node">
<title>PasswordResetService</title>
<ellipse fill="#fdb462" stroke="black" cx="2165" cy="-180" rx="98.41" ry="18"/>
<text text-anchor="middle" x="2165" y="-175.8" font-family="Times,serif" font-size="14.00">PasswordResetService</text>
</g>
<!-- PasswordResetService&#45;&gt;AuthModule -->
<g id="edge21" class="edge">
<title>PasswordResetService&#45;&gt;AuthModule</title>
<path fill="none" stroke="black" d="M2165,-198.01C2165,-220.49 2165,-256 2165,-256 2165,-256 1558.56,-256 1558.56,-256"/>
<polygon fill="black" stroke="black" points="1558.56,-252.5 1548.56,-256 1558.56,-259.5 1558.56,-252.5"/>
</g>
<!-- UtilisateursService -->
<g id="node20" class="node">
<title>UtilisateursService</title>
<ellipse fill="#fdb462" stroke="black" cx="1964" cy="-180" rx="84.52" ry="18"/>
<text text-anchor="middle" x="1964" y="-175.8" font-family="Times,serif" font-size="14.00">UtilisateursService</text>
</g>
<!-- UtilisateursService&#45;&gt;AuthModule -->
<g id="edge23" class="edge">
<title>UtilisateursService&#45;&gt;AuthModule</title>
<path fill="none" stroke="black" d="M1964,-198.17C1964,-219.5 1964,-252 1964,-252 1964,-252 1558.6,-252 1558.6,-252"/>
<polygon fill="black" stroke="black" points="1558.6,-248.5 1548.6,-252 1558.6,-255.5 1558.6,-248.5"/>
</g>
<!-- UtilisateursService&#45;&gt;UtilisateursModule -->
<g id="edge38" class="edge">
<title>UtilisateursService&#45;&gt;UtilisateursModule</title>
<path fill="none" stroke="black" d="M1964,-161.96C1964,-154.25 1964,-147 1964,-147 1964,-147 1527.2,-147 1527.2,-147 1527.2,-147 1527.2,-151.96 1527.2,-151.96"/>
<polygon fill="black" stroke="black" points="1523.7,-151.96 1527.2,-161.96 1530.7,-151.96 1523.7,-151.96"/>
</g>
<!-- ImagesService -->
<g id="node21" class="node">
<title>ImagesService</title>
<ellipse fill="#fdb462" stroke="black" cx="1054" cy="-104" rx="67.75" ry="18"/>
<text text-anchor="middle" x="1054" y="-99.8" font-family="Times,serif" font-size="14.00">ImagesService</text>
</g>
<!-- ImagesService&#45;&gt;ImagesModule -->
<g id="edge26" class="edge">
<title>ImagesService&#45;&gt;ImagesModule</title>
<path fill="none" stroke="black" d="M1007.08,-117.24C1007.08,-117.24 1007.08,-151.79 1007.08,-151.79"/>
<polygon fill="black" stroke="black" points="1003.58,-151.79 1007.08,-161.79 1010.58,-151.79 1003.58,-151.79"/>
</g>
<!-- MailService -->
<g id="node23" class="node">
<title>MailService</title>
<ellipse fill="#fdb462" stroke="black" cx="82" cy="-256" rx="58.46" ry="18"/>
<text text-anchor="middle" x="82" y="-251.8" font-family="Times,serif" font-size="14.00">MailService</text>
</g>
<!-- MailService&#45;&gt;MailModule -->
<g id="edge29" class="edge">
<title>MailService&#45;&gt;MailModule</title>
<path fill="none" stroke="black" d="M82,-237.85C82,-225.73 82,-212 82,-212 82,-212 866.5,-212 866.5,-212 866.5,-212 866.5,-208.24 866.5,-208.24"/>
<polygon fill="black" stroke="black" points="870,-208.24 866.5,-198.24 863,-208.24 870,-208.24"/>
</g>
<!-- MessagesService -->
<g id="node24" class="node">
<title>MessagesService</title>
<ellipse fill="#fdb462" stroke="black" cx="1240" cy="-104" rx="77.56" ry="18"/>
<text text-anchor="middle" x="1240" y="-99.8" font-family="Times,serif" font-size="14.00">MessagesService</text>
</g>
<!-- MessagesService&#45;&gt;MessagesModule -->
<g id="edge30" class="edge">
<title>MessagesService&#45;&gt;MessagesModule</title>
<path fill="none" stroke="black" d="M1221,-121.63C1221,-121.63 1221,-151.94 1221,-151.94"/>
<polygon fill="black" stroke="black" points="1217.5,-151.94 1221,-161.94 1224.5,-151.94 1217.5,-151.94"/>
</g>
<!-- PagesService -->
<g id="node25" class="node">
<title>PagesService</title>
<ellipse fill="#fdb462" stroke="black" cx="1421" cy="-104" rx="62.54" ry="18"/>
<text text-anchor="middle" x="1421" y="-99.8" font-family="Times,serif" font-size="14.00">PagesService</text>
</g>
<!-- PagesService&#45;&gt;PagesModule -->
<g id="edge32" class="edge">
<title>PagesService&#45;&gt;PagesModule</title>
<path fill="none" stroke="black" d="M1374.69,-116.21C1374.69,-116.21 1374.69,-151.86 1374.69,-151.86"/>
<polygon fill="black" stroke="black" points="1371.19,-151.86 1374.69,-161.86 1378.19,-151.86 1371.19,-151.86"/>
</g>
<!-- PrismaService  -->
<g id="node26" class="node">
<title>PrismaService </title>
<polygon fill="#fb8072" stroke="black" points="2978.36,-274 2877.64,-274 2877.64,-238 2978.36,-238 2978.36,-274"/>
<text text-anchor="middle" x="2928" y="-251.8" font-family="Times,serif" font-size="14.00">PrismaService </text>
</g>
<!-- PrismaModule&#45;&gt;PrismaService  -->
<g id="edge34" class="edge">
<title>PrismaModule&#45;&gt;PrismaService </title>
<path fill="none" stroke="black" stroke-dasharray="5,2" d="M2925.02,-198.01C2925.02,-198.01 2925.02,-227.85 2925.02,-227.85"/>
<polygon fill="black" stroke="black" points="2921.52,-227.85 2925.02,-237.85 2928.52,-227.85 2921.52,-227.85"/>
</g>
<!-- VisitorService -->
<g id="node29" class="node">
<title>VisitorService</title>
<ellipse fill="#fdb462" stroke="black" cx="3085" cy="-104" rx="66.63" ry="18"/>
<text text-anchor="middle" x="3085" y="-99.8" font-family="Times,serif" font-size="14.00">VisitorService</text>
</g>
<!-- VisitorService&#45;&gt;VisitorModule -->
<g id="edge40" class="edge">
<title>VisitorService&#45;&gt;VisitorModule</title>
<path fill="none" stroke="black" d="M3088.41,-122.01C3088.41,-122.01 3088.41,-151.85 3088.41,-151.85"/>
<polygon fill="black" stroke="black" points="3084.91,-151.85 3088.41,-161.85 3091.91,-151.85 3084.91,-151.85"/>
</g>
</g>
</svg>
